<?xml version="1.0" encoding="utf-8"?>
<!-- Generator: Adobe Illustrator 16.0.0, SVG Export Plug-In . SVG Version: 6.00 Build 0)  -->
<!DOCTYPE svg PUBLIC "-//W3C//DTD SVG 1.1//EN" "http://www.w3.org/Graphics/SVG/1.1/DTD/svg11.dtd">
<svg version="1.1" id="Layer_1" xmlns="http://www.w3.org/2000/svg" xmlns:xlink="http://www.w3.org/1999/xlink" x="0px" y="0px"
	 width="53.125px" height="42.625px" viewBox="-31.5 -9 53.125 42.625" enable-background="new -31.5 -9 53.125 42.625"
	 xml:space="preserve">
<circle fill="#D8D8D8" cx="-11.75" cy="12.313" r="18"/>
<path fill="#72809D" d="M-15.974,8.441c0-2.333,1.892-4.224,4.225-4.224s4.225,1.891,4.225,4.224v0.704
	c0,2.334-1.892,4.225-4.225,4.225s-4.225-1.891-4.225-4.225V8.441z M-19.23,18.36c1.041-1.354,4.659-2.88,7.479-2.88
	s6.441,1.526,7.482,2.88c0.643,0.837,0.03,2.048-1.025,2.048h-12.912C-19.262,20.408-19.874,19.197-19.23,18.36z"/>
<path fill="#72809D" d="M15.992,13.085l-3.82-3.82c-0.414-0.414-1.086-0.414-1.5,0s-0.414,1.086,0,1.5l4.613,4.613
	c0.392,0.392,1.025,0.392,1.414,0l4.615-4.613c0.414-0.414,0.414-1.086,0-1.5s-1.086-0.414-1.5,0L15.992,13.085z"/>
</svg>
