<svg width="4" height="16" viewBox="0 0 4 16" fill="none" xmlns="http://www.w3.org/2000/svg">
<path d="M2 0.666702C1.46957 0.666702 0.960859 0.877416 0.585786 1.25249C0.210713 1.62756 0 2.13627 0 2.6667C0 3.19714 0.210713 3.70584 0.585786 4.08092C0.960859 4.45599 1.46957 4.6667 2 4.6667C2.53043 4.6667 3.03914 4.45599 3.41421 4.08092C3.78929 3.70584 4 3.19714 4 2.6667C4 2.13627 3.78929 1.62756 3.41421 1.25249C3.03914 0.877416 2.53043 0.666702 2 0.666702ZM2 6.00004C1.46957 6.00004 0.960859 6.21075 0.585786 6.58582C0.210713 6.96089 0 7.4696 0 8.00004C0 8.53047 0.210713 9.03918 0.585786 9.41425C0.960859 9.78932 1.46957 10 2 10C2.53043 10 3.03914 9.78932 3.41421 9.41425C3.78929 9.03918 4 8.53047 4 8.00004C4 7.4696 3.78929 6.96089 3.41421 6.58582C3.03914 6.21075 2.53043 6.00004 2 6.00004ZM2 11.3334C1.46957 11.3334 0.960859 11.5441 0.585786 11.9192C0.210713 12.2942 0 12.8029 0 13.3334C0 13.8638 0.210713 14.3725 0.585786 14.7476C0.960859 15.1227 1.46957 15.3334 2 15.3334C2.53043 15.3334 3.03914 15.1227 3.41421 14.7476C3.78929 14.3725 4 13.8638 4 13.3334C4 12.8029 3.78929 12.2942 3.41421 11.9192C3.03914 11.5441 2.53043 11.3334 2 11.3334Z" fill="#C3C3C3"/>
</svg>
