<?xml version="1.0" encoding="utf-8"?>
<!-- Generator: Adobe Illustrator 16.0.0, SVG Export Plug-In . SVG Version: 6.00 Build 0)  -->
<!DOCTYPE svg PUBLIC "-//W3C//DTD SVG 1.1//EN" "http://www.w3.org/Graphics/SVG/1.1/DTD/svg11.dtd">
<svg version="1.1" id="Layer_1" xmlns="http://www.w3.org/2000/svg" xmlns:xlink="http://www.w3.org/1999/xlink" x="0px" y="0px"
	 width="31px" height="31px" viewBox="0 0 31 31" enable-background="new 0 0 31 31" xml:space="preserve">
<path fill="#00A2D6" d="M6.327,0h18.347C28.168,0,31,2.833,31,6.327v18.347C31,28.168,28.168,31,24.674,31H6.327
	C2.833,31,0,28.168,0,24.674V6.327C0,2.833,2.833,0,6.327,0z"/>
<g>
	<path fill="#FFFFFF" d="M23.479,12.173c-0.226-0.134-0.469,0.109-0.469,0.462v2.41c0,0.35,0.243,0.594,0.469,0.462
		c0.459-0.256,0.771-0.9,0.771-1.653C24.25,13.102,23.938,12.458,23.479,12.173z"/>
	<path fill="#FFFFFF" d="M8.231,16.366c0.213,0.041,0.409,0.145,0.562,0.299s0.255,0.351,0.294,0.564l1.313,5.524
		c0.028,0.17,0.12,0.323,0.256,0.428c0.136,0.105,0.307,0.155,0.479,0.139c0.171-0.016,0.33-0.096,0.445-0.224
		c0.115-0.129,0.177-0.295,0.173-0.468V11.236c-0.002-0.05-0.015-0.099-0.039-0.143c-0.023-0.044-0.057-0.083-0.097-0.112
		s-0.086-0.051-0.135-0.061c-0.049-0.01-0.1-0.009-0.148,0.003l-2.938,0.734c-0.464,0.118-0.877,0.386-1.174,0.761
		s-0.463,0.838-0.473,1.317v0.938c0,0.391,0.137,0.77,0.386,1.071c0.249,0.3,0.595,0.505,0.979,0.579L8.231,16.366z"/>
	<path fill="#FFFFFF" d="M13.666,18.735c0.254-0.101,0.482-0.258,0.666-0.459c0.196-0.208,0.446-0.356,0.723-0.428
		c0.277-0.071,0.568-0.063,0.84,0.024l4.221,1.278c0.109,0.03,0.205,0.096,0.274,0.185s0.108,0.198,0.11,0.312
		c-0.002,0.068,0.01,0.137,0.033,0.201c0.025,0.064,0.062,0.123,0.108,0.173c0.048,0.05,0.104,0.09,0.166,0.118
		s0.13,0.044,0.198,0.046h0.219c0.137-0.001,0.269-0.055,0.367-0.15c0.098-0.096,0.154-0.226,0.158-0.362V8.205
		c0-0.14-0.056-0.274-0.154-0.374c-0.1-0.099-0.234-0.155-0.373-0.155h-0.219c-0.069,0.002-0.137,0.019-0.199,0.047
		c-0.063,0.029-0.118,0.069-0.165,0.119c-0.047,0.05-0.083,0.109-0.106,0.174C20.509,8.08,20.498,8.148,20.5,8.217
		c-0.002,0.115-0.043,0.227-0.115,0.317S20.213,8.689,20.1,8.717l-6.696,1.987c-0.115,0.028-0.217,0.094-0.29,0.187
		C13.04,10.984,13,11.099,13,11.217v7.046c-0.001,0.08,0.017,0.159,0.053,0.231c0.036,0.072,0.089,0.134,0.155,0.18
		c0.066,0.047,0.142,0.076,0.222,0.088C13.509,18.772,13.59,18.763,13.666,18.735z"/>
</g>
</svg>
