<?xml version="1.0" encoding="utf-8"?>
<!-- Generator: Adobe Illustrator 16.0.0, SVG Export Plug-In . SVG Version: 6.00 Build 0)  -->
<!DOCTYPE svg PUBLIC "-//W3C//DTD SVG 1.1//EN" "http://www.w3.org/Graphics/SVG/1.1/DTD/svg11.dtd">
<svg version="1.1" id="Layer_1" xmlns="http://www.w3.org/2000/svg" xmlns:xlink="http://www.w3.org/1999/xlink" x="0px" y="0px"
	 width="31px" height="31px" viewBox="0 0 31 31" enable-background="new 0 0 31 31" xml:space="preserve">
<path fill="#00A2D6" d="M6.327,0h18.347C28.168,0,31,2.833,31,6.327v18.347C31,28.168,28.168,31,24.674,31H6.327
	C2.833,31,0,28.168,0,24.674V6.327C0,2.833,2.833,0,6.327,0z"/>
<g>
	<path fill="#FFFFFF" d="M23.848,24.269h-2.295c-0.305,0-0.6-0.111-0.83-0.313s-0.381-0.479-0.422-0.782l-1.188-8.842
		c-0.033-0.169-0.127-0.32-0.264-0.426c-0.135-0.105-0.305-0.158-0.477-0.149h-5.745c-0.171-0.009-0.341,0.045-0.476,0.15
		c-0.136,0.105-0.229,0.257-0.263,0.425l-1.188,8.842c-0.041,0.304-0.191,0.582-0.422,0.783s-0.527,0.313-0.833,0.312H7.152
		c-0.082,0-0.161,0.032-0.219,0.091c-0.058,0.059-0.09,0.137-0.09,0.219s0.033,0.16,0.09,0.219c0.058,0.058,0.137,0.09,0.219,0.09
		h16.695c0.082,0,0.16-0.032,0.219-0.09c0.059-0.059,0.09-0.137,0.09-0.219s-0.031-0.16-0.09-0.219S23.93,24.269,23.848,24.269z
		 M16.736,20.83c0.002,0.045-0.006,0.09-0.021,0.133c-0.016,0.041-0.041,0.08-0.072,0.111c-0.031,0.033-0.068,0.059-0.109,0.076
		s-0.086,0.026-0.131,0.026h-1.805c-0.045,0-0.089-0.009-0.13-0.026c-0.042-0.018-0.079-0.043-0.11-0.076
		c-0.031-0.031-0.056-0.07-0.072-0.111c-0.016-0.043-0.023-0.088-0.021-0.133v-2.127c0-0.328,0.13-0.643,0.362-0.874
		s0.547-0.362,0.875-0.362c0.328,0,0.643,0.131,0.875,0.362c0.23,0.231,0.361,0.546,0.361,0.874V20.83z"/>
	<path fill="#FFFFFF" d="M10.732,10.003c-0.001,0.139,0.024,0.275,0.076,0.403s0.128,0.245,0.226,0.343
		c0.097,0.1,0.213,0.178,0.34,0.23c0.128,0.053,0.265,0.08,0.403,0.08h7.804c0.138,0,0.275-0.027,0.403-0.08
		c0.127-0.053,0.242-0.131,0.34-0.23c0.098-0.098,0.174-0.215,0.227-0.343c0.051-0.128,0.077-0.265,0.075-0.403V7.041
		c0-0.246-0.098-0.481-0.271-0.656c-0.174-0.174-0.409-0.271-0.655-0.271s-0.482,0.098-0.656,0.271
		c-0.174,0.175-0.271,0.41-0.271,0.656v0.31c0,0.164-0.065,0.32-0.182,0.437c-0.115,0.116-0.273,0.181-0.438,0.181
		s-0.32-0.064-0.438-0.181c-0.115-0.116-0.181-0.272-0.181-0.437V6.731c0-0.164-0.065-0.321-0.181-0.438
		c-0.116-0.115-0.273-0.181-0.438-0.181s-0.321,0.065-0.438,0.181c-0.115,0.116-0.181,0.273-0.181,0.438v0.619
		c0,0.164-0.065,0.32-0.181,0.437C16,7.903,15.843,7.968,15.679,7.968s-0.321-0.064-0.437-0.181
		c-0.116-0.116-0.181-0.272-0.181-0.437V6.731c0-0.164-0.065-0.321-0.181-0.438c-0.116-0.115-0.273-0.181-0.438-0.181
		c-0.164,0-0.321,0.065-0.437,0.181c-0.116,0.116-0.181,0.273-0.181,0.438v0.619c0,0.164-0.065,0.32-0.181,0.437
		c-0.116,0.116-0.273,0.181-0.437,0.181s-0.321-0.064-0.438-0.181c-0.116-0.116-0.181-0.272-0.181-0.437v-0.31
		c0-0.246-0.098-0.481-0.271-0.656c-0.174-0.174-0.41-0.271-0.656-0.271s-0.482,0.098-0.656,0.271
		c-0.174,0.175-0.272,0.41-0.272,0.656V10.003z"/>
</g>
</svg>
